<mxfile host="app.diagrams.net" modified="2021-11-26T03:39:28.810Z" agent="5.0 (Windows NT 10.0; Win64; x64) AppleWebKit/537.36 (KHTML, like Gecko) Chrome/96.0.4664.45 Safari/537.36" etag="Yz6fzdhQ8To_DYwzJSA7" version="15.8.3" type="github">
  <diagram id="rIIhH8Boc3NlNeEUyPd1" name="Page-1">
    <mxGraphModel dx="1101" dy="548" grid="1" gridSize="10" guides="1" tooltips="1" connect="1" arrows="1" fold="1" page="1" pageScale="1" pageWidth="850" pageHeight="1100" math="0" shadow="0">
      <root>
        <mxCell id="0" />
        <mxCell id="1" parent="0" />
        <mxCell id="Sgi27Xk1f2abm7ALGQn8-1" value="Start" style="ellipse;whiteSpace=wrap;html=1;" vertex="1" parent="1">
          <mxGeometry x="420" y="50" width="70" height="60" as="geometry" />
        </mxCell>
        <mxCell id="Sgi27Xk1f2abm7ALGQn8-2" value="Video Frame Capture" style="rounded=0;whiteSpace=wrap;html=1;" vertex="1" parent="1">
          <mxGeometry x="370" y="150" width="170" height="60" as="geometry" />
        </mxCell>
        <mxCell id="Sgi27Xk1f2abm7ALGQn8-3" value="" style="rhombus;whiteSpace=wrap;html=1;" vertex="1" parent="1">
          <mxGeometry x="330" y="240" width="120" height="120" as="geometry" />
        </mxCell>
        <mxCell id="Sgi27Xk1f2abm7ALGQn8-4" value="" style="ellipse;whiteSpace=wrap;html=1;" vertex="1" parent="1">
          <mxGeometry x="595" y="275" width="70" height="50" as="geometry" />
        </mxCell>
        <mxCell id="Sgi27Xk1f2abm7ALGQn8-5" value="" style="rounded=0;whiteSpace=wrap;html=1;" vertex="1" parent="1">
          <mxGeometry x="330" y="390" width="120" height="60" as="geometry" />
        </mxCell>
        <mxCell id="Sgi27Xk1f2abm7ALGQn8-6" value="" style="rounded=0;whiteSpace=wrap;html=1;" vertex="1" parent="1">
          <mxGeometry x="180" y="480" width="120" height="60" as="geometry" />
        </mxCell>
        <mxCell id="Sgi27Xk1f2abm7ALGQn8-7" value="" style="rounded=0;whiteSpace=wrap;html=1;" vertex="1" parent="1">
          <mxGeometry x="580" y="480" width="120" height="60" as="geometry" />
        </mxCell>
        <mxCell id="Sgi27Xk1f2abm7ALGQn8-8" value="" style="rhombus;whiteSpace=wrap;html=1;" vertex="1" parent="1">
          <mxGeometry x="175" y="580" width="130" height="130" as="geometry" />
        </mxCell>
        <mxCell id="Sgi27Xk1f2abm7ALGQn8-9" value="" style="rhombus;whiteSpace=wrap;html=1;" vertex="1" parent="1">
          <mxGeometry x="570" y="570" width="130" height="130" as="geometry" />
        </mxCell>
        <mxCell id="Sgi27Xk1f2abm7ALGQn8-10" value="" style="rounded=0;whiteSpace=wrap;html=1;" vertex="1" parent="1">
          <mxGeometry x="370" y="615" width="120" height="60" as="geometry" />
        </mxCell>
        <mxCell id="Sgi27Xk1f2abm7ALGQn8-11" value="" style="rhombus;whiteSpace=wrap;html=1;" vertex="1" parent="1">
          <mxGeometry x="175" y="760" width="130" height="130" as="geometry" />
        </mxCell>
        <mxCell id="Sgi27Xk1f2abm7ALGQn8-12" value="" style="rhombus;whiteSpace=wrap;html=1;" vertex="1" parent="1">
          <mxGeometry x="565" y="720" width="135" height="130" as="geometry" />
        </mxCell>
        <mxCell id="Sgi27Xk1f2abm7ALGQn8-13" value="" style="rhombus;whiteSpace=wrap;html=1;" vertex="1" parent="1">
          <mxGeometry x="570" y="870" width="130" height="130" as="geometry" />
        </mxCell>
        <mxCell id="Sgi27Xk1f2abm7ALGQn8-14" value="" style="shape=cylinder3;whiteSpace=wrap;html=1;boundedLbl=1;backgroundOutline=1;size=15;" vertex="1" parent="1">
          <mxGeometry x="363" y="770" width="125" height="80" as="geometry" />
        </mxCell>
        <mxCell id="Sgi27Xk1f2abm7ALGQn8-15" value="" style="rounded=0;whiteSpace=wrap;html=1;" vertex="1" parent="1">
          <mxGeometry x="370" y="915" width="120" height="60" as="geometry" />
        </mxCell>
      </root>
    </mxGraphModel>
  </diagram>
</mxfile>
